<svg width="85" height="15" viewBox="0 0 85 15" fill="none" xmlns="http://www.w3.org/2000/svg">
<path d="M6.19629 14.3174C4.93652 14.3174 3.84082 14.0449 2.90918 13.5C1.9834 12.9551 1.26562 12.1904 0.755859 11.2061C0.251953 10.2158 0 9.05859 0 7.73438C0 6.42773 0.249023 5.28516 0.74707 4.30664C1.24512 3.32813 1.95703 2.56641 2.88281 2.02148C3.80859 1.47656 4.91016 1.2041 6.1875 1.2041C7.62305 1.2041 8.8418 1.56445 9.84375 2.28516C10.8516 3 11.5137 4.03711 11.8301 5.39648L9.07031 6.03809C8.89453 5.18848 8.55176 4.55273 8.04199 4.13086C7.53809 3.70898 6.91699 3.49805 6.17871 3.49805C5.46973 3.49805 4.86621 3.67383 4.36816 4.02539C3.87598 4.37695 3.49805 4.87207 3.23438 5.51074C2.97656 6.14355 2.84766 6.89355 2.84766 7.76074C2.84766 8.62793 2.97949 9.38379 3.24316 10.0283C3.50684 10.667 3.88477 11.1621 4.37695 11.5137C4.86914 11.8594 5.45801 12.0322 6.14355 12.0322C6.88184 12.0322 7.50293 11.8213 8.00684 11.3994C8.51074 10.9775 8.85352 10.3828 9.03516 9.61523L11.8564 10.1865C11.5166 11.5107 10.8457 12.5303 9.84375 13.2451C8.8418 13.96 7.62598 14.3174 6.19629 14.3174ZM17.3763 14.3174C16.4213 14.3174 15.5775 14.1064 14.8451 13.6846C14.1185 13.2627 13.5502 12.6797 13.14 11.9355C12.7298 11.1855 12.5248 10.3213 12.5248 9.34277C12.5248 8.3584 12.7298 7.49414 13.14 6.75C13.5502 6 14.1185 5.41699 14.8451 5.00098C15.5775 4.5791 16.4213 4.36816 17.3763 4.36816C18.3373 4.36816 19.181 4.5791 19.9076 5.00098C20.64 5.41699 21.2113 6 21.6214 6.75C22.0316 7.49414 22.2367 8.3584 22.2367 9.34277C22.2367 10.3271 22.0316 11.1943 21.6214 11.9443C21.2113 12.6885 20.64 13.2715 19.9076 13.6934C19.1752 14.1094 18.3314 14.3174 17.3763 14.3174ZM17.3851 12.3926C18.0355 12.3926 18.5482 12.1201 18.9232 11.5752C19.3041 11.0244 19.4945 10.2803 19.4945 9.34277C19.4945 8.39941 19.3041 7.65527 18.9232 7.11035C18.5482 6.56543 18.0326 6.29297 17.3763 6.29297C16.7259 6.29297 16.2103 6.56543 15.8295 7.11035C15.4545 7.65527 15.267 8.39941 15.267 9.34277C15.267 10.2861 15.4545 11.0303 15.8295 11.5752C16.2103 12.1201 16.7289 12.3926 17.3851 12.3926ZM23.6872 14.0889V4.59668H26.3064V14.0889H23.6872ZM24.9968 3.46289C24.4753 3.46289 24.0564 3.30469 23.74 2.98828C23.4236 2.67188 23.2654 2.25293 23.2654 1.73145C23.2654 1.2041 23.4236 0.785156 23.74 0.474609C24.0564 0.158203 24.4753 0 24.9968 0C25.5241 0 25.9431 0.158203 26.2536 0.474609C26.57 0.785156 26.7282 1.2041 26.7282 1.73145C26.7282 2.25293 26.57 2.67188 26.2536 2.98828C25.9431 3.30469 25.5241 3.46289 24.9968 3.46289ZM28.3458 14.0889V4.59668H30.877V6.78516L30.8155 6.38965C31.1026 5.7627 31.5098 5.27051 32.0372 4.91309C32.5645 4.5498 33.2003 4.36816 33.9444 4.36816C34.6827 4.36816 35.2862 4.53516 35.755 4.86914C36.2296 5.20312 36.5811 5.66602 36.8096 6.25781C37.0382 6.84961 37.1524 7.53223 37.1524 8.30566V14.0889H34.5333V8.47266C34.5333 7.79883 34.422 7.27734 34.1993 6.9082C33.9766 6.5332 33.5899 6.3457 33.0391 6.3457C32.3888 6.3457 31.879 6.62402 31.5098 7.18066C31.1466 7.7373 30.9649 8.58984 30.9649 9.73828V14.0889H28.3458ZM37.9614 14.0889L40.6245 1.43262H45.186C46.5102 1.43262 47.5561 1.56445 48.3237 1.82812C49.0913 2.0918 49.6332 2.47559 49.9496 2.97949C50.2719 3.4834 50.433 4.09277 50.433 4.80762C50.433 5.50488 50.3071 6.12598 50.0551 6.6709C49.8032 7.20996 49.434 7.66699 48.9477 8.04199C48.4672 8.41113 47.8813 8.69238 47.1899 8.88574C46.4985 9.07324 45.7133 9.16699 44.8344 9.16699H42.0483L41.0112 14.0889H37.9614ZM42.558 6.73242H45.5112C46.0092 6.73242 46.437 6.60645 46.7944 6.35449C47.1518 6.10254 47.3305 5.70117 47.3305 5.15039C47.3305 4.72852 47.184 4.41211 46.8911 4.20117C46.6039 3.98437 46.0678 3.87598 45.2827 3.87598H43.1645L42.558 6.73242ZM52.5691 14.3262C51.784 14.3262 51.1775 14.1445 50.7498 13.7812C50.3221 13.4121 50.0496 12.9229 49.9324 12.3135C49.8211 11.7041 49.8416 11.0332 49.9939 10.3008L51.1893 4.59668H54.1512L52.991 10.1777C52.9207 10.5234 52.8885 10.8516 52.8943 11.1621C52.9002 11.4668 52.9764 11.7158 53.1229 11.9092C53.2693 12.0967 53.5154 12.1904 53.8611 12.1904C54.4002 12.1904 54.8602 11.9238 55.241 11.3906C55.6277 10.8574 55.9471 9.99316 56.199 8.79785L57.0867 4.59668H60.0574L58.6248 11.3906C58.5838 11.5781 58.5809 11.707 58.616 11.7773C58.657 11.8418 58.7596 11.874 58.9236 11.874H59.5037L59.0467 14.0889H57.8426C56.9988 14.0889 56.4217 13.8633 56.1111 13.4121C55.8006 12.9551 55.7273 12.3428 55.8914 11.5752L56.0057 11.0303V12.3223C55.6131 12.9727 55.1238 13.4707 54.5379 13.8164C53.9578 14.1562 53.3016 14.3262 52.5691 14.3262ZM62.8 14.0889C61.9035 14.0889 61.2619 13.8721 60.8752 13.4385C60.4884 13.0049 60.383 12.3867 60.5588 11.584L62.8088 0.905273H65.7707L63.5646 11.3994C63.5236 11.5928 63.5207 11.7217 63.5558 11.7861C63.5968 11.8506 63.7052 11.8828 63.881 11.8828H64.4699L64.0041 14.0889H62.8ZM69.4097 14.3262C68.8648 14.3262 68.3316 14.2617 67.8101 14.1328C67.2886 14.0098 66.814 13.8252 66.3863 13.5791C65.9585 13.3271 65.6128 13.0166 65.3491 12.6475C65.0913 12.2725 64.9478 11.8418 64.9185 11.3555L67.6079 10.8281C67.5728 11.25 67.7105 11.5869 68.021 11.8389C68.3374 12.085 68.7681 12.208 69.313 12.208C69.6411 12.208 69.9077 12.1611 70.1128 12.0674C70.3238 11.9736 70.482 11.8535 70.5874 11.707C70.6929 11.5605 70.7456 11.4053 70.7456 11.2412C70.7456 11.0244 70.646 10.8311 70.4468 10.6611C70.2534 10.4912 69.9663 10.3711 69.5855 10.3008L68.8823 10.1602C68.5835 10.1016 68.2671 10.0166 67.9331 9.90527C67.5991 9.79395 67.2857 9.6416 66.9927 9.44824C66.7056 9.24902 66.4712 8.99707 66.2896 8.69238C66.1079 8.3877 66.0171 8.01562 66.0171 7.57617C66.0171 6.95508 66.1958 6.4043 66.5532 5.92383C66.9165 5.4375 67.4029 5.05664 68.0122 4.78125C68.6275 4.5 69.313 4.35938 70.0689 4.35938C70.7544 4.35938 71.4077 4.47363 72.0288 4.70215C72.6558 4.93066 73.1743 5.25586 73.5845 5.67773C73.9947 6.09375 74.2232 6.58301 74.27 7.14551L71.5982 7.68164C71.604 7.26562 71.4722 6.95508 71.2027 6.75C70.9331 6.53906 70.5845 6.43359 70.1568 6.43359C69.7642 6.43359 69.4712 6.51562 69.2779 6.67969C69.0845 6.84375 68.9878 7.04297 68.9878 7.27734C68.9878 7.56445 69.1284 7.77539 69.4097 7.91016C69.6909 8.04492 70.0279 8.15039 70.4204 8.22656L71.2554 8.39355C71.9234 8.52246 72.4976 8.81543 72.9781 9.27246C73.4585 9.72949 73.6988 10.3242 73.6988 11.0566C73.6988 11.7188 73.5083 12.2959 73.1275 12.7881C72.7466 13.2744 72.231 13.6523 71.5806 13.9219C70.9361 14.1914 70.2124 14.3262 69.4097 14.3262ZM79.1747 14.3262C78.3016 14.3262 77.5223 14.1621 76.8368 13.834C76.1571 13.5 75.6239 13.0137 75.2372 12.375C74.8563 11.7305 74.6659 10.9541 74.6659 10.0459C74.6659 9.33691 74.786 8.64551 75.0263 7.97168C75.2723 7.29785 75.6298 6.68848 76.0985 6.14355C76.5731 5.59863 77.1503 5.16504 77.83 4.84277C78.5155 4.52051 79.2948 4.35938 80.1679 4.35938C81.0468 4.35938 81.7792 4.52051 82.3651 4.84277C82.9511 5.15918 83.4022 5.58691 83.7186 6.12598C84.035 6.65918 84.2225 7.25684 84.2811 7.91895C84.3456 8.5752 84.2899 9.24902 84.1141 9.94043H76.5907L76.9247 8.32324H81.7938L81.495 8.75391C81.5419 8.44922 81.5419 8.11816 81.495 7.76074C81.4481 7.39746 81.3192 7.08691 81.1083 6.8291C80.9032 6.57129 80.5809 6.44238 80.1415 6.44238C79.6962 6.44238 79.3182 6.58008 79.0077 6.85547C78.6972 7.13086 78.4481 7.47656 78.2606 7.89258C78.0731 8.30859 77.9354 8.7334 77.8475 9.16699C77.7655 9.59473 77.7245 9.96387 77.7245 10.2744C77.7245 10.8311 77.8563 11.2764 78.12 11.6104C78.3837 11.9385 78.7821 12.1025 79.3153 12.1025C79.6962 12.1025 80.0419 12.0029 80.3524 11.8037C80.663 11.6045 80.9472 11.2617 81.205 10.7754L83.8329 11.4961C83.3583 12.457 82.7138 13.1689 81.8993 13.6318C81.0907 14.0947 80.1825 14.3262 79.1747 14.3262Z" fill="white"/>
</svg>
